<?xml version="1.0" encoding="utf-8"?>
<!DOCTYPE score-partwise  PUBLIC "-//Recordare//DTD MusicXML 3.0 Partwise//EN" "http://www.musicxml.org/dtds/partwise.dtd">
<score-partwise version="3.0">
  <work>
    <work-title>GZT_2021_11_04_221548NoneNone</work-title>
  </work>
  <movement-title>GZT_2021_11_04_221548NoneNone</movement-title>
  <identification>
    <creator type="composer">by GZT 2021年11月04日 - 10:15 PM</creator>
    <encoding>
      <encoding-date>2021-11-04</encoding-date>
      <software>music21 v.6.7.1</software>
    </encoding>
  </identification>
  <defaults>
    <scaling>
      <millimeters>7</millimeters>
      <tenths>40</tenths>
    </scaling>
  </defaults>
  <part-list>
    <score-part id="P37e7eccd5dc809bed59ecd21f87e6c93">
      <part-name />
    </score-part>
    <score-part id="P6a72cdb9d7eef03d4c1a17a6ed54eb83">
      <part-name />
    </score-part>
    <score-part id="P93b9eeb5b706e484ff872c1cf74c67aa">
      <part-name />
    </score-part>
    <score-part id="P94f4626070e6e2e4e78d89bfd02753f7">
      <part-name />
    </score-part>
  </part-list>
  <!--=========================== Part 1 ===========================-->
  <part id="P37e7eccd5dc809bed59ecd21f87e6c93">
    <!--========================= Measure 0 ==========================-->
    <measure number="0">
      <attributes>
        <divisions>10080</divisions>
        <key>
          <fifths>0</fifths>
        </key>
        <time>
          <beats>4</beats>
          <beat-type>4</beat-type>
        </time>
      </attributes>
      <direction>
        <direction-type>
          <metronome parentheses="no">
            <beat-unit>quarter</beat-unit>
            <per-minute>120</per-minute>
          </metronome>
        </direction-type>
        <sound tempo="120" />
      </direction>
      <note>
        <pitch>
          <step>D</step>
          <octave>5</octave>
        </pitch>
        <duration>10080</duration>
        <type>quarter</type>
        <lyric name="1" number="1">
          <syllabic>single</syllabic>
          <text>D</text>
        </lyric>
      </note>
      <note>
        <pitch>
          <step>E</step>
          <octave>4</octave>
        </pitch>
        <duration>10080</duration>
        <type>quarter</type>
        <lyric name="1" number="1">
          <syllabic>single</syllabic>
          <text>E</text>
        </lyric>
      </note>
      <note>
        <pitch>
          <step>A</step>
          <octave>4</octave>
        </pitch>
        <duration>10080</duration>
        <type>quarter</type>
        <lyric name="1" number="1">
          <syllabic>single</syllabic>
          <text>A</text>
        </lyric>
      </note>
      <note>
        <pitch>
          <step>B</step>
          <octave>4</octave>
        </pitch>
        <duration>10080</duration>
        <type>quarter</type>
        <lyric name="1" number="1">
          <syllabic>single</syllabic>
          <text>B</text>
        </lyric>
      </note>
    </measure>
    <!--========================= Measure 0 ==========================-->
    <measure number="0">
      <note>
        <pitch>
          <step>D</step>
          <octave>4</octave>
        </pitch>
        <duration>10080</duration>
        <type>quarter</type>
        <lyric name="1" number="1">
          <syllabic>single</syllabic>
          <text>D</text>
        </lyric>
      </note>
      <note>
        <pitch>
          <step>E</step>
          <octave>4</octave>
        </pitch>
        <duration>10080</duration>
        <type>quarter</type>
        <lyric name="1" number="1">
          <syllabic>single</syllabic>
          <text>E</text>
        </lyric>
      </note>
      <note>
        <pitch>
          <step>F</step>
          <octave>5</octave>
        </pitch>
        <duration>10080</duration>
        <type>quarter</type>
        <lyric name="1" number="1">
          <syllabic>single</syllabic>
          <text>F</text>
        </lyric>
      </note>
      <note>
        <pitch>
          <step>G</step>
          <octave>5</octave>
        </pitch>
        <duration>10080</duration>
        <type>quarter</type>
        <lyric name="1" number="1">
          <syllabic>single</syllabic>
          <text>G</text>
        </lyric>
      </note>
    </measure>
    <!--========================= Measure 0 ==========================-->
    <measure number="0">
      <note>
        <pitch>
          <step>D</step>
          <octave>4</octave>
        </pitch>
        <duration>10080</duration>
        <type>quarter</type>
        <lyric name="1" number="1">
          <syllabic>single</syllabic>
          <text>D</text>
        </lyric>
      </note>
      <note>
        <pitch>
          <step>C</step>
          <octave>4</octave>
        </pitch>
        <duration>10080</duration>
        <type>quarter</type>
        <lyric name="1" number="1">
          <syllabic>single</syllabic>
          <text>C</text>
        </lyric>
      </note>
      <note>
        <pitch>
          <step>G</step>
          <octave>4</octave>
        </pitch>
        <duration>10080</duration>
        <type>quarter</type>
        <lyric name="1" number="1">
          <syllabic>single</syllabic>
          <text>G</text>
        </lyric>
      </note>
      <note>
        <pitch>
          <step>D</step>
          <octave>5</octave>
        </pitch>
        <duration>10080</duration>
        <type>quarter</type>
        <lyric name="1" number="1">
          <syllabic>single</syllabic>
          <text>D</text>
        </lyric>
      </note>
    </measure>
    <!--========================= Measure 0 ==========================-->
    <measure number="0">
      <note>
        <pitch>
          <step>G</step>
          <octave>4</octave>
        </pitch>
        <duration>10080</duration>
        <type>quarter</type>
        <lyric name="1" number="1">
          <syllabic>single</syllabic>
          <text>G</text>
        </lyric>
      </note>
      <note>
        <pitch>
          <step>F</step>
          <octave>4</octave>
        </pitch>
        <duration>10080</duration>
        <type>quarter</type>
        <lyric name="1" number="1">
          <syllabic>single</syllabic>
          <text>F</text>
        </lyric>
      </note>
      <note>
        <pitch>
          <step>F</step>
          <octave>4</octave>
        </pitch>
        <duration>10080</duration>
        <type>quarter</type>
        <lyric name="1" number="1">
          <syllabic>single</syllabic>
          <text>F</text>
        </lyric>
      </note>
      <note>
        <pitch>
          <step>B</step>
          <octave>5</octave>
        </pitch>
        <duration>10080</duration>
        <type>quarter</type>
        <lyric name="1" number="1">
          <syllabic>single</syllabic>
          <text>B</text>
        </lyric>
      </note>
    </measure>
    <!--========================= Measure 0 ==========================-->
    <measure number="0">
      <note>
        <pitch>
          <step>A</step>
          <octave>5</octave>
        </pitch>
        <duration>10080</duration>
        <type>quarter</type>
        <lyric name="1" number="1">
          <syllabic>single</syllabic>
          <text>A</text>
        </lyric>
      </note>
      <note>
        <pitch>
          <step>F</step>
          <octave>5</octave>
        </pitch>
        <duration>10080</duration>
        <type>quarter</type>
        <lyric name="1" number="1">
          <syllabic>single</syllabic>
          <text>F</text>
        </lyric>
      </note>
      <note>
        <pitch>
          <step>B</step>
          <octave>4</octave>
        </pitch>
        <duration>10080</duration>
        <type>quarter</type>
        <lyric name="1" number="1">
          <syllabic>single</syllabic>
          <text>B</text>
        </lyric>
      </note>
      <note>
        <pitch>
          <step>C</step>
          <octave>5</octave>
        </pitch>
        <duration>10080</duration>
        <type>quarter</type>
        <lyric name="1" number="1">
          <syllabic>single</syllabic>
          <text>C</text>
        </lyric>
      </note>
    </measure>
    <!--========================= Measure 0 ==========================-->
    <measure number="0">
      <note>
        <pitch>
          <step>F</step>
          <octave>5</octave>
        </pitch>
        <duration>10080</duration>
        <type>quarter</type>
        <lyric name="1" number="1">
          <syllabic>single</syllabic>
          <text>F</text>
        </lyric>
      </note>
      <note>
        <pitch>
          <step>F</step>
          <octave>5</octave>
        </pitch>
        <duration>10080</duration>
        <type>quarter</type>
        <lyric name="1" number="1">
          <syllabic>single</syllabic>
          <text>F</text>
        </lyric>
      </note>
      <note>
        <pitch>
          <step>D</step>
          <octave>4</octave>
        </pitch>
        <duration>10080</duration>
        <type>quarter</type>
        <lyric name="1" number="1">
          <syllabic>single</syllabic>
          <text>D</text>
        </lyric>
      </note>
      <note>
        <pitch>
          <step>F</step>
          <octave>5</octave>
        </pitch>
        <duration>10080</duration>
        <type>quarter</type>
        <lyric name="1" number="1">
          <syllabic>single</syllabic>
          <text>F</text>
        </lyric>
      </note>
    </measure>
    <!--========================= Measure 0 ==========================-->
    <measure number="0">
      <note>
        <pitch>
          <step>F</step>
          <octave>5</octave>
        </pitch>
        <duration>10080</duration>
        <type>quarter</type>
        <lyric name="1" number="1">
          <syllabic>single</syllabic>
          <text>F</text>
        </lyric>
      </note>
      <note>
        <pitch>
          <step>A</step>
          <octave>4</octave>
        </pitch>
        <duration>10080</duration>
        <type>quarter</type>
        <lyric name="1" number="1">
          <syllabic>single</syllabic>
          <text>A</text>
        </lyric>
      </note>
      <note>
        <pitch>
          <step>G</step>
          <octave>4</octave>
        </pitch>
        <duration>10080</duration>
        <type>quarter</type>
        <lyric name="1" number="1">
          <syllabic>single</syllabic>
          <text>G</text>
        </lyric>
      </note>
      <note>
        <pitch>
          <step>B</step>
          <octave>4</octave>
        </pitch>
        <duration>10080</duration>
        <type>quarter</type>
        <lyric name="1" number="1">
          <syllabic>single</syllabic>
          <text>B</text>
        </lyric>
      </note>
    </measure>
    <!--========================= Measure 0 ==========================-->
    <measure number="0">
      <note>
        <pitch>
          <step>D</step>
          <octave>4</octave>
        </pitch>
        <duration>10080</duration>
        <type>quarter</type>
        <lyric name="1" number="1">
          <syllabic>single</syllabic>
          <text>D</text>
        </lyric>
      </note>
      <note>
        <pitch>
          <step>G</step>
          <octave>5</octave>
        </pitch>
        <duration>10080</duration>
        <type>quarter</type>
        <lyric name="1" number="1">
          <syllabic>single</syllabic>
          <text>G</text>
        </lyric>
      </note>
      <note>
        <pitch>
          <step>B</step>
          <octave>4</octave>
        </pitch>
        <duration>10080</duration>
        <type>quarter</type>
        <lyric name="1" number="1">
          <syllabic>single</syllabic>
          <text>B</text>
        </lyric>
      </note>
      <note>
        <pitch>
          <step>D</step>
          <octave>4</octave>
        </pitch>
        <duration>10080</duration>
        <type>quarter</type>
        <lyric name="1" number="1">
          <syllabic>single</syllabic>
          <text>D</text>
        </lyric>
      </note>
    </measure>
    <!--========================= Measure 0 ==========================-->
    <measure number="0">
      <note>
        <pitch>
          <step>B</step>
          <octave>5</octave>
        </pitch>
        <duration>10080</duration>
        <type>quarter</type>
        <lyric name="1" number="1">
          <syllabic>single</syllabic>
          <text>B</text>
        </lyric>
      </note>
      <note>
        <pitch>
          <step>B</step>
          <octave>5</octave>
        </pitch>
        <duration>10080</duration>
        <type>quarter</type>
        <lyric name="1" number="1">
          <syllabic>single</syllabic>
          <text>B</text>
        </lyric>
      </note>
      <note>
        <pitch>
          <step>B</step>
          <octave>4</octave>
        </pitch>
        <duration>10080</duration>
        <type>quarter</type>
        <lyric name="1" number="1">
          <syllabic>single</syllabic>
          <text>B</text>
        </lyric>
      </note>
      <note>
        <pitch>
          <step>C</step>
          <octave>5</octave>
        </pitch>
        <duration>10080</duration>
        <type>quarter</type>
        <lyric name="1" number="1">
          <syllabic>single</syllabic>
          <text>C</text>
        </lyric>
      </note>
    </measure>
    <!--========================= Measure 0 ==========================-->
    <measure number="0">
      <note>
        <pitch>
          <step>E</step>
          <octave>4</octave>
        </pitch>
        <duration>10080</duration>
        <type>quarter</type>
        <lyric name="1" number="1">
          <syllabic>single</syllabic>
          <text>E</text>
        </lyric>
      </note>
      <note>
        <pitch>
          <step>F</step>
          <octave>5</octave>
        </pitch>
        <duration>10080</duration>
        <type>quarter</type>
        <lyric name="1" number="1">
          <syllabic>single</syllabic>
          <text>F</text>
        </lyric>
      </note>
      <note>
        <pitch>
          <step>D</step>
          <octave>5</octave>
        </pitch>
        <duration>10080</duration>
        <type>quarter</type>
        <lyric name="1" number="1">
          <syllabic>single</syllabic>
          <text>D</text>
        </lyric>
      </note>
      <note>
        <pitch>
          <step>A</step>
          <octave>4</octave>
        </pitch>
        <duration>10080</duration>
        <type>quarter</type>
        <lyric name="1" number="1">
          <syllabic>single</syllabic>
          <text>A</text>
        </lyric>
      </note>
    </measure>
    <!--========================= Measure 0 ==========================-->
    <measure number="0">
      <note>
        <pitch>
          <step>G</step>
          <octave>4</octave>
        </pitch>
        <duration>10080</duration>
        <type>quarter</type>
        <lyric name="1" number="1">
          <syllabic>single</syllabic>
          <text>G</text>
        </lyric>
      </note>
      <note>
        <pitch>
          <step>D</step>
          <octave>4</octave>
        </pitch>
        <duration>10080</duration>
        <type>quarter</type>
        <lyric name="1" number="1">
          <syllabic>single</syllabic>
          <text>D</text>
        </lyric>
      </note>
      <note>
        <pitch>
          <step>D</step>
          <octave>5</octave>
        </pitch>
        <duration>10080</duration>
        <type>quarter</type>
        <lyric name="1" number="1">
          <syllabic>single</syllabic>
          <text>D</text>
        </lyric>
      </note>
      <note>
        <pitch>
          <step>F</step>
          <octave>4</octave>
        </pitch>
        <duration>10080</duration>
        <type>quarter</type>
        <lyric name="1" number="1">
          <syllabic>single</syllabic>
          <text>F</text>
        </lyric>
      </note>
    </measure>
    <!--========================= Measure 0 ==========================-->
    <measure number="0">
      <note>
        <pitch>
          <step>D</step>
          <octave>5</octave>
        </pitch>
        <duration>10080</duration>
        <type>quarter</type>
        <lyric name="1" number="1">
          <syllabic>single</syllabic>
          <text>D</text>
        </lyric>
      </note>
      <note>
        <pitch>
          <step>A</step>
          <octave>5</octave>
        </pitch>
        <duration>10080</duration>
        <type>quarter</type>
        <lyric name="1" number="1">
          <syllabic>single</syllabic>
          <text>A</text>
        </lyric>
      </note>
      <note>
        <pitch>
          <step>D</step>
          <octave>5</octave>
        </pitch>
        <duration>10080</duration>
        <type>quarter</type>
        <lyric name="1" number="1">
          <syllabic>single</syllabic>
          <text>D</text>
        </lyric>
      </note>
      <note>
        <pitch>
          <step>F</step>
          <octave>5</octave>
        </pitch>
        <duration>10080</duration>
        <type>quarter</type>
        <lyric name="1" number="1">
          <syllabic>single</syllabic>
          <text>F</text>
        </lyric>
      </note>
    </measure>
    <!--========================= Measure 0 ==========================-->
    <measure number="0">
      <note>
        <pitch>
          <step>A</step>
          <octave>5</octave>
        </pitch>
        <duration>10080</duration>
        <type>quarter</type>
        <lyric name="1" number="1">
          <syllabic>single</syllabic>
          <text>A</text>
        </lyric>
      </note>
      <note>
        <pitch>
          <step>G</step>
          <octave>4</octave>
        </pitch>
        <duration>10080</duration>
        <type>quarter</type>
        <lyric name="1" number="1">
          <syllabic>single</syllabic>
          <text>G</text>
        </lyric>
      </note>
      <note>
        <pitch>
          <step>G</step>
          <octave>5</octave>
        </pitch>
        <duration>10080</duration>
        <type>quarter</type>
        <lyric name="1" number="1">
          <syllabic>single</syllabic>
          <text>G</text>
        </lyric>
      </note>
      <note>
        <pitch>
          <step>F</step>
          <octave>5</octave>
        </pitch>
        <duration>10080</duration>
        <type>quarter</type>
        <lyric name="1" number="1">
          <syllabic>single</syllabic>
          <text>F</text>
        </lyric>
      </note>
    </measure>
    <!--========================= Measure 0 ==========================-->
    <measure number="0">
      <note>
        <pitch>
          <step>D</step>
          <octave>5</octave>
        </pitch>
        <duration>10080</duration>
        <type>quarter</type>
        <lyric name="1" number="1">
          <syllabic>single</syllabic>
          <text>D</text>
        </lyric>
      </note>
      <note>
        <pitch>
          <step>F</step>
          <octave>5</octave>
        </pitch>
        <duration>10080</duration>
        <type>quarter</type>
        <lyric name="1" number="1">
          <syllabic>single</syllabic>
          <text>F</text>
        </lyric>
      </note>
      <note>
        <pitch>
          <step>E</step>
          <octave>5</octave>
        </pitch>
        <duration>10080</duration>
        <type>quarter</type>
        <lyric name="1" number="1">
          <syllabic>single</syllabic>
          <text>E</text>
        </lyric>
      </note>
      <note>
        <pitch>
          <step>C</step>
          <octave>5</octave>
        </pitch>
        <duration>10080</duration>
        <type>quarter</type>
        <lyric name="1" number="1">
          <syllabic>single</syllabic>
          <text>C</text>
        </lyric>
      </note>
    </measure>
    <!--========================= Measure 0 ==========================-->
    <measure number="0">
      <note>
        <pitch>
          <step>B</step>
          <octave>5</octave>
        </pitch>
        <duration>10080</duration>
        <type>quarter</type>
        <lyric name="1" number="1">
          <syllabic>single</syllabic>
          <text>B</text>
        </lyric>
      </note>
      <note>
        <pitch>
          <step>F</step>
          <octave>5</octave>
        </pitch>
        <duration>10080</duration>
        <type>quarter</type>
        <lyric name="1" number="1">
          <syllabic>single</syllabic>
          <text>F</text>
        </lyric>
      </note>
      <note>
        <pitch>
          <step>B</step>
          <octave>5</octave>
        </pitch>
        <duration>10080</duration>
        <type>quarter</type>
        <lyric name="1" number="1">
          <syllabic>single</syllabic>
          <text>B</text>
        </lyric>
      </note>
      <note>
        <pitch>
          <step>E</step>
          <octave>4</octave>
        </pitch>
        <duration>10080</duration>
        <type>quarter</type>
        <lyric name="1" number="1">
          <syllabic>single</syllabic>
          <text>E</text>
        </lyric>
      </note>
    </measure>
    <!--========================= Measure 0 ==========================-->
    <measure number="0">
      <note>
        <pitch>
          <step>A</step>
          <octave>4</octave>
        </pitch>
        <duration>10080</duration>
        <type>quarter</type>
        <lyric name="1" number="1">
          <syllabic>single</syllabic>
          <text>A</text>
        </lyric>
      </note>
      <note>
        <pitch>
          <step>B</step>
          <octave>4</octave>
        </pitch>
        <duration>10080</duration>
        <type>quarter</type>
        <lyric name="1" number="1">
          <syllabic>single</syllabic>
          <text>B</text>
        </lyric>
      </note>
      <note>
        <pitch>
          <step>D</step>
          <octave>5</octave>
        </pitch>
        <duration>10080</duration>
        <type>quarter</type>
        <lyric name="1" number="1">
          <syllabic>single</syllabic>
          <text>D</text>
        </lyric>
      </note>
      <note>
        <pitch>
          <step>B</step>
          <octave>4</octave>
        </pitch>
        <duration>10080</duration>
        <type>quarter</type>
        <lyric name="1" number="1">
          <syllabic>single</syllabic>
          <text>B</text>
        </lyric>
      </note>
    </measure>
  </part>
  <!--=========================== Part 2 ===========================-->
  <part id="P6a72cdb9d7eef03d4c1a17a6ed54eb83">
    <!--========================= Measure 0 ==========================-->
    <measure number="0">
      <attributes>
        <divisions>10080</divisions>
        <key>
          <fifths>0</fifths>
        </key>
        <time>
          <beats>4</beats>
          <beat-type>4</beat-type>
        </time>
      </attributes>
      <direction>
        <direction-type>
          <metronome parentheses="no">
            <beat-unit>quarter</beat-unit>
            <per-minute>120</per-minute>
          </metronome>
        </direction-type>
        <sound tempo="120" />
      </direction>
      <note>
        <pitch>
          <step>F</step>
          <octave>5</octave>
        </pitch>
        <duration>10080</duration>
        <type>quarter</type>
        <lyric name="1" number="1">
          <syllabic>single</syllabic>
          <text>F</text>
        </lyric>
      </note>
      <note>
        <pitch>
          <step>C</step>
          <octave>4</octave>
        </pitch>
        <duration>10080</duration>
        <type>quarter</type>
        <lyric name="1" number="1">
          <syllabic>single</syllabic>
          <text>C</text>
        </lyric>
      </note>
      <note>
        <pitch>
          <step>E</step>
          <octave>5</octave>
        </pitch>
        <duration>10080</duration>
        <type>quarter</type>
        <lyric name="1" number="1">
          <syllabic>single</syllabic>
          <text>E</text>
        </lyric>
      </note>
      <note>
        <pitch>
          <step>B</step>
          <octave>5</octave>
        </pitch>
        <duration>10080</duration>
        <type>quarter</type>
        <lyric name="1" number="1">
          <syllabic>single</syllabic>
          <text>B</text>
        </lyric>
      </note>
    </measure>
    <!--========================= Measure 0 ==========================-->
    <measure number="0">
      <note>
        <pitch>
          <step>F</step>
          <octave>5</octave>
        </pitch>
        <duration>10080</duration>
        <type>quarter</type>
        <lyric name="1" number="1">
          <syllabic>single</syllabic>
          <text>F</text>
        </lyric>
      </note>
      <note>
        <pitch>
          <step>F</step>
          <octave>4</octave>
        </pitch>
        <duration>10080</duration>
        <type>quarter</type>
        <lyric name="1" number="1">
          <syllabic>single</syllabic>
          <text>F</text>
        </lyric>
      </note>
      <note>
        <pitch>
          <step>A</step>
          <octave>4</octave>
        </pitch>
        <duration>10080</duration>
        <type>quarter</type>
        <lyric name="1" number="1">
          <syllabic>single</syllabic>
          <text>A</text>
        </lyric>
      </note>
      <note>
        <pitch>
          <step>E</step>
          <octave>4</octave>
        </pitch>
        <duration>10080</duration>
        <type>quarter</type>
        <lyric name="1" number="1">
          <syllabic>single</syllabic>
          <text>E</text>
        </lyric>
      </note>
    </measure>
    <!--========================= Measure 0 ==========================-->
    <measure number="0">
      <note>
        <pitch>
          <step>D</step>
          <octave>4</octave>
        </pitch>
        <duration>10080</duration>
        <type>quarter</type>
        <lyric name="1" number="1">
          <syllabic>single</syllabic>
          <text>D</text>
        </lyric>
      </note>
      <note>
        <pitch>
          <step>E</step>
          <octave>4</octave>
        </pitch>
        <duration>10080</duration>
        <type>quarter</type>
        <lyric name="1" number="1">
          <syllabic>single</syllabic>
          <text>E</text>
        </lyric>
      </note>
      <note>
        <pitch>
          <step>A</step>
          <octave>5</octave>
        </pitch>
        <duration>10080</duration>
        <type>quarter</type>
        <lyric name="1" number="1">
          <syllabic>single</syllabic>
          <text>A</text>
        </lyric>
      </note>
      <note>
        <pitch>
          <step>F</step>
          <octave>4</octave>
        </pitch>
        <duration>10080</duration>
        <type>quarter</type>
        <lyric name="1" number="1">
          <syllabic>single</syllabic>
          <text>F</text>
        </lyric>
      </note>
    </measure>
    <!--========================= Measure 0 ==========================-->
    <measure number="0">
      <note>
        <pitch>
          <step>E</step>
          <octave>5</octave>
        </pitch>
        <duration>10080</duration>
        <type>quarter</type>
        <lyric name="1" number="1">
          <syllabic>single</syllabic>
          <text>E</text>
        </lyric>
      </note>
      <note>
        <pitch>
          <step>D</step>
          <octave>5</octave>
        </pitch>
        <duration>10080</duration>
        <type>quarter</type>
        <lyric name="1" number="1">
          <syllabic>single</syllabic>
          <text>D</text>
        </lyric>
      </note>
      <note>
        <pitch>
          <step>F</step>
          <octave>5</octave>
        </pitch>
        <duration>10080</duration>
        <type>quarter</type>
        <lyric name="1" number="1">
          <syllabic>single</syllabic>
          <text>F</text>
        </lyric>
      </note>
      <note>
        <pitch>
          <step>A</step>
          <octave>4</octave>
        </pitch>
        <duration>10080</duration>
        <type>quarter</type>
        <lyric name="1" number="1">
          <syllabic>single</syllabic>
          <text>A</text>
        </lyric>
      </note>
    </measure>
    <!--========================= Measure 0 ==========================-->
    <measure number="0">
      <note>
        <pitch>
          <step>G</step>
          <octave>5</octave>
        </pitch>
        <duration>10080</duration>
        <type>quarter</type>
        <lyric name="1" number="1">
          <syllabic>single</syllabic>
          <text>G</text>
        </lyric>
      </note>
      <note>
        <pitch>
          <step>G</step>
          <octave>4</octave>
        </pitch>
        <duration>10080</duration>
        <type>quarter</type>
        <lyric name="1" number="1">
          <syllabic>single</syllabic>
          <text>G</text>
        </lyric>
      </note>
      <note>
        <pitch>
          <step>D</step>
          <octave>5</octave>
        </pitch>
        <duration>10080</duration>
        <type>quarter</type>
        <lyric name="1" number="1">
          <syllabic>single</syllabic>
          <text>D</text>
        </lyric>
      </note>
      <note>
        <pitch>
          <step>E</step>
          <octave>5</octave>
        </pitch>
        <duration>10080</duration>
        <type>quarter</type>
        <lyric name="1" number="1">
          <syllabic>single</syllabic>
          <text>E</text>
        </lyric>
      </note>
    </measure>
    <!--========================= Measure 0 ==========================-->
    <measure number="0">
      <note>
        <pitch>
          <step>F</step>
          <octave>4</octave>
        </pitch>
        <duration>10080</duration>
        <type>quarter</type>
        <lyric name="1" number="1">
          <syllabic>single</syllabic>
          <text>F</text>
        </lyric>
      </note>
      <note>
        <pitch>
          <step>B</step>
          <octave>4</octave>
        </pitch>
        <duration>10080</duration>
        <type>quarter</type>
        <lyric name="1" number="1">
          <syllabic>single</syllabic>
          <text>B</text>
        </lyric>
      </note>
      <note>
        <pitch>
          <step>D</step>
          <octave>4</octave>
        </pitch>
        <duration>10080</duration>
        <type>quarter</type>
        <lyric name="1" number="1">
          <syllabic>single</syllabic>
          <text>D</text>
        </lyric>
      </note>
      <note>
        <pitch>
          <step>G</step>
          <octave>4</octave>
        </pitch>
        <duration>10080</duration>
        <type>quarter</type>
        <lyric name="1" number="1">
          <syllabic>single</syllabic>
          <text>G</text>
        </lyric>
      </note>
    </measure>
    <!--========================= Measure 0 ==========================-->
    <measure number="0">
      <note>
        <pitch>
          <step>B</step>
          <octave>4</octave>
        </pitch>
        <duration>10080</duration>
        <type>quarter</type>
        <lyric name="1" number="1">
          <syllabic>single</syllabic>
          <text>B</text>
        </lyric>
      </note>
      <note>
        <pitch>
          <step>F</step>
          <octave>4</octave>
        </pitch>
        <duration>10080</duration>
        <type>quarter</type>
        <lyric name="1" number="1">
          <syllabic>single</syllabic>
          <text>F</text>
        </lyric>
      </note>
      <note>
        <pitch>
          <step>B</step>
          <octave>4</octave>
        </pitch>
        <duration>10080</duration>
        <type>quarter</type>
        <lyric name="1" number="1">
          <syllabic>single</syllabic>
          <text>B</text>
        </lyric>
      </note>
      <note>
        <pitch>
          <step>B</step>
          <octave>5</octave>
        </pitch>
        <duration>10080</duration>
        <type>quarter</type>
        <lyric name="1" number="1">
          <syllabic>single</syllabic>
          <text>B</text>
        </lyric>
      </note>
    </measure>
    <!--========================= Measure 0 ==========================-->
    <measure number="0">
      <note>
        <pitch>
          <step>C</step>
          <octave>4</octave>
        </pitch>
        <duration>10080</duration>
        <type>quarter</type>
        <lyric name="1" number="1">
          <syllabic>single</syllabic>
          <text>C</text>
        </lyric>
      </note>
      <note>
        <pitch>
          <step>G</step>
          <octave>5</octave>
        </pitch>
        <duration>10080</duration>
        <type>quarter</type>
        <lyric name="1" number="1">
          <syllabic>single</syllabic>
          <text>G</text>
        </lyric>
      </note>
      <note>
        <pitch>
          <step>F</step>
          <octave>5</octave>
        </pitch>
        <duration>10080</duration>
        <type>quarter</type>
        <lyric name="1" number="1">
          <syllabic>single</syllabic>
          <text>F</text>
        </lyric>
      </note>
      <note>
        <pitch>
          <step>C</step>
          <octave>4</octave>
        </pitch>
        <duration>10080</duration>
        <type>quarter</type>
        <lyric name="1" number="1">
          <syllabic>single</syllabic>
          <text>C</text>
        </lyric>
      </note>
    </measure>
    <!--========================= Measure 0 ==========================-->
    <measure number="0">
      <note>
        <pitch>
          <step>E</step>
          <octave>5</octave>
        </pitch>
        <duration>10080</duration>
        <type>quarter</type>
        <lyric name="1" number="1">
          <syllabic>single</syllabic>
          <text>E</text>
        </lyric>
      </note>
      <note>
        <pitch>
          <step>A</step>
          <octave>4</octave>
        </pitch>
        <duration>10080</duration>
        <type>quarter</type>
        <lyric name="1" number="1">
          <syllabic>single</syllabic>
          <text>A</text>
        </lyric>
      </note>
      <note>
        <pitch>
          <step>B</step>
          <octave>5</octave>
        </pitch>
        <duration>10080</duration>
        <type>quarter</type>
        <lyric name="1" number="1">
          <syllabic>single</syllabic>
          <text>B</text>
        </lyric>
      </note>
      <note>
        <pitch>
          <step>D</step>
          <octave>5</octave>
        </pitch>
        <duration>10080</duration>
        <type>quarter</type>
        <lyric name="1" number="1">
          <syllabic>single</syllabic>
          <text>D</text>
        </lyric>
      </note>
    </measure>
    <!--========================= Measure 0 ==========================-->
    <measure number="0">
      <note>
        <pitch>
          <step>B</step>
          <octave>5</octave>
        </pitch>
        <duration>10080</duration>
        <type>quarter</type>
        <lyric name="1" number="1">
          <syllabic>single</syllabic>
          <text>B</text>
        </lyric>
      </note>
      <note>
        <pitch>
          <step>C</step>
          <octave>4</octave>
        </pitch>
        <duration>10080</duration>
        <type>quarter</type>
        <lyric name="1" number="1">
          <syllabic>single</syllabic>
          <text>C</text>
        </lyric>
      </note>
      <note>
        <pitch>
          <step>A</step>
          <octave>4</octave>
        </pitch>
        <duration>10080</duration>
        <type>quarter</type>
        <lyric name="1" number="1">
          <syllabic>single</syllabic>
          <text>A</text>
        </lyric>
      </note>
      <note>
        <pitch>
          <step>C</step>
          <octave>4</octave>
        </pitch>
        <duration>10080</duration>
        <type>quarter</type>
        <lyric name="1" number="1">
          <syllabic>single</syllabic>
          <text>C</text>
        </lyric>
      </note>
    </measure>
    <!--========================= Measure 0 ==========================-->
    <measure number="0">
      <note>
        <pitch>
          <step>G</step>
          <octave>5</octave>
        </pitch>
        <duration>10080</duration>
        <type>quarter</type>
        <lyric name="1" number="1">
          <syllabic>single</syllabic>
          <text>G</text>
        </lyric>
      </note>
      <note>
        <pitch>
          <step>E</step>
          <octave>5</octave>
        </pitch>
        <duration>10080</duration>
        <type>quarter</type>
        <lyric name="1" number="1">
          <syllabic>single</syllabic>
          <text>E</text>
        </lyric>
      </note>
      <note>
        <pitch>
          <step>F</step>
          <octave>5</octave>
        </pitch>
        <duration>10080</duration>
        <type>quarter</type>
        <lyric name="1" number="1">
          <syllabic>single</syllabic>
          <text>F</text>
        </lyric>
      </note>
      <note>
        <pitch>
          <step>G</step>
          <octave>5</octave>
        </pitch>
        <duration>10080</duration>
        <type>quarter</type>
        <lyric name="1" number="1">
          <syllabic>single</syllabic>
          <text>G</text>
        </lyric>
      </note>
    </measure>
    <!--========================= Measure 0 ==========================-->
    <measure number="0">
      <note>
        <pitch>
          <step>E</step>
          <octave>5</octave>
        </pitch>
        <duration>10080</duration>
        <type>quarter</type>
        <lyric name="1" number="1">
          <syllabic>single</syllabic>
          <text>E</text>
        </lyric>
      </note>
      <note>
        <pitch>
          <step>C</step>
          <octave>4</octave>
        </pitch>
        <duration>10080</duration>
        <type>quarter</type>
        <lyric name="1" number="1">
          <syllabic>single</syllabic>
          <text>C</text>
        </lyric>
      </note>
      <note>
        <pitch>
          <step>F</step>
          <octave>5</octave>
        </pitch>
        <duration>10080</duration>
        <type>quarter</type>
        <lyric name="1" number="1">
          <syllabic>single</syllabic>
          <text>F</text>
        </lyric>
      </note>
      <note>
        <pitch>
          <step>A</step>
          <octave>4</octave>
        </pitch>
        <duration>10080</duration>
        <type>quarter</type>
        <lyric name="1" number="1">
          <syllabic>single</syllabic>
          <text>A</text>
        </lyric>
      </note>
    </measure>
    <!--========================= Measure 0 ==========================-->
    <measure number="0">
      <note>
        <pitch>
          <step>B</step>
          <octave>5</octave>
        </pitch>
        <duration>10080</duration>
        <type>quarter</type>
        <lyric name="1" number="1">
          <syllabic>single</syllabic>
          <text>B</text>
        </lyric>
      </note>
      <note>
        <pitch>
          <step>D</step>
          <octave>4</octave>
        </pitch>
        <duration>10080</duration>
        <type>quarter</type>
        <lyric name="1" number="1">
          <syllabic>single</syllabic>
          <text>D</text>
        </lyric>
      </note>
      <note>
        <pitch>
          <step>G</step>
          <octave>5</octave>
        </pitch>
        <duration>10080</duration>
        <type>quarter</type>
        <lyric name="1" number="1">
          <syllabic>single</syllabic>
          <text>G</text>
        </lyric>
      </note>
      <note>
        <pitch>
          <step>A</step>
          <octave>4</octave>
        </pitch>
        <duration>10080</duration>
        <type>quarter</type>
        <lyric name="1" number="1">
          <syllabic>single</syllabic>
          <text>A</text>
        </lyric>
      </note>
    </measure>
    <!--========================= Measure 0 ==========================-->
    <measure number="0">
      <note>
        <pitch>
          <step>F</step>
          <octave>5</octave>
        </pitch>
        <duration>10080</duration>
        <type>quarter</type>
        <lyric name="1" number="1">
          <syllabic>single</syllabic>
          <text>F</text>
        </lyric>
      </note>
      <note>
        <pitch>
          <step>B</step>
          <octave>4</octave>
        </pitch>
        <duration>10080</duration>
        <type>quarter</type>
        <lyric name="1" number="1">
          <syllabic>single</syllabic>
          <text>B</text>
        </lyric>
      </note>
      <note>
        <pitch>
          <step>E</step>
          <octave>4</octave>
        </pitch>
        <duration>10080</duration>
        <type>quarter</type>
        <lyric name="1" number="1">
          <syllabic>single</syllabic>
          <text>E</text>
        </lyric>
      </note>
      <note>
        <pitch>
          <step>A</step>
          <octave>4</octave>
        </pitch>
        <duration>10080</duration>
        <type>quarter</type>
        <lyric name="1" number="1">
          <syllabic>single</syllabic>
          <text>A</text>
        </lyric>
      </note>
    </measure>
    <!--========================= Measure 0 ==========================-->
    <measure number="0">
      <note>
        <pitch>
          <step>B</step>
          <octave>4</octave>
        </pitch>
        <duration>10080</duration>
        <type>quarter</type>
        <lyric name="1" number="1">
          <syllabic>single</syllabic>
          <text>B</text>
        </lyric>
      </note>
      <note>
        <pitch>
          <step>A</step>
          <octave>5</octave>
        </pitch>
        <duration>10080</duration>
        <type>quarter</type>
        <lyric name="1" number="1">
          <syllabic>single</syllabic>
          <text>A</text>
        </lyric>
      </note>
      <note>
        <pitch>
          <step>C</step>
          <octave>5</octave>
        </pitch>
        <duration>10080</duration>
        <type>quarter</type>
        <lyric name="1" number="1">
          <syllabic>single</syllabic>
          <text>C</text>
        </lyric>
      </note>
      <note>
        <pitch>
          <step>F</step>
          <octave>5</octave>
        </pitch>
        <duration>10080</duration>
        <type>quarter</type>
        <lyric name="1" number="1">
          <syllabic>single</syllabic>
          <text>F</text>
        </lyric>
      </note>
    </measure>
    <!--========================= Measure 0 ==========================-->
    <measure number="0">
      <note>
        <pitch>
          <step>F</step>
          <octave>5</octave>
        </pitch>
        <duration>10080</duration>
        <type>quarter</type>
        <lyric name="1" number="1">
          <syllabic>single</syllabic>
          <text>F</text>
        </lyric>
      </note>
      <note>
        <pitch>
          <step>D</step>
          <octave>4</octave>
        </pitch>
        <duration>10080</duration>
        <type>quarter</type>
        <lyric name="1" number="1">
          <syllabic>single</syllabic>
          <text>D</text>
        </lyric>
      </note>
      <note>
        <pitch>
          <step>G</step>
          <octave>4</octave>
        </pitch>
        <duration>10080</duration>
        <type>quarter</type>
        <lyric name="1" number="1">
          <syllabic>single</syllabic>
          <text>G</text>
        </lyric>
      </note>
      <note>
        <pitch>
          <step>E</step>
          <octave>4</octave>
        </pitch>
        <duration>10080</duration>
        <type>quarter</type>
        <lyric name="1" number="1">
          <syllabic>single</syllabic>
          <text>E</text>
        </lyric>
      </note>
    </measure>
  </part>
  <!--=========================== Part 3 ===========================-->
  <part id="P93b9eeb5b706e484ff872c1cf74c67aa">
    <!--========================= Measure 0 ==========================-->
    <measure number="0">
      <attributes>
        <divisions>10080</divisions>
        <key>
          <fifths>0</fifths>
        </key>
        <time>
          <beats>4</beats>
          <beat-type>4</beat-type>
        </time>
      </attributes>
      <direction>
        <direction-type>
          <metronome parentheses="no">
            <beat-unit>quarter</beat-unit>
            <per-minute>120</per-minute>
          </metronome>
        </direction-type>
        <sound tempo="120" />
      </direction>
      <note>
        <pitch>
          <step>F</step>
          <octave>4</octave>
        </pitch>
        <duration>10080</duration>
        <type>quarter</type>
        <lyric name="1" number="1">
          <syllabic>single</syllabic>
          <text>F</text>
        </lyric>
      </note>
      <note>
        <pitch>
          <step>B</step>
          <octave>5</octave>
        </pitch>
        <duration>10080</duration>
        <type>quarter</type>
        <lyric name="1" number="1">
          <syllabic>single</syllabic>
          <text>B</text>
        </lyric>
      </note>
      <note>
        <pitch>
          <step>E</step>
          <octave>5</octave>
        </pitch>
        <duration>10080</duration>
        <type>quarter</type>
        <lyric name="1" number="1">
          <syllabic>single</syllabic>
          <text>E</text>
        </lyric>
      </note>
      <note>
        <pitch>
          <step>D</step>
          <octave>4</octave>
        </pitch>
        <duration>10080</duration>
        <type>quarter</type>
        <lyric name="1" number="1">
          <syllabic>single</syllabic>
          <text>D</text>
        </lyric>
      </note>
    </measure>
    <!--========================= Measure 0 ==========================-->
    <measure number="0">
      <note>
        <pitch>
          <step>G</step>
          <octave>4</octave>
        </pitch>
        <duration>10080</duration>
        <type>quarter</type>
        <lyric name="1" number="1">
          <syllabic>single</syllabic>
          <text>G</text>
        </lyric>
      </note>
      <note>
        <pitch>
          <step>G</step>
          <octave>4</octave>
        </pitch>
        <duration>10080</duration>
        <type>quarter</type>
        <lyric name="1" number="1">
          <syllabic>single</syllabic>
          <text>G</text>
        </lyric>
      </note>
      <note>
        <pitch>
          <step>G</step>
          <octave>4</octave>
        </pitch>
        <duration>10080</duration>
        <type>quarter</type>
        <lyric name="1" number="1">
          <syllabic>single</syllabic>
          <text>G</text>
        </lyric>
      </note>
      <note>
        <pitch>
          <step>F</step>
          <octave>5</octave>
        </pitch>
        <duration>10080</duration>
        <type>quarter</type>
        <lyric name="1" number="1">
          <syllabic>single</syllabic>
          <text>F</text>
        </lyric>
      </note>
    </measure>
    <!--========================= Measure 0 ==========================-->
    <measure number="0">
      <note>
        <pitch>
          <step>D</step>
          <octave>4</octave>
        </pitch>
        <duration>10080</duration>
        <type>quarter</type>
        <lyric name="1" number="1">
          <syllabic>single</syllabic>
          <text>D</text>
        </lyric>
      </note>
      <note>
        <pitch>
          <step>E</step>
          <octave>5</octave>
        </pitch>
        <duration>10080</duration>
        <type>quarter</type>
        <lyric name="1" number="1">
          <syllabic>single</syllabic>
          <text>E</text>
        </lyric>
      </note>
      <note>
        <pitch>
          <step>F</step>
          <octave>5</octave>
        </pitch>
        <duration>10080</duration>
        <type>quarter</type>
        <lyric name="1" number="1">
          <syllabic>single</syllabic>
          <text>F</text>
        </lyric>
      </note>
      <note>
        <pitch>
          <step>B</step>
          <octave>5</octave>
        </pitch>
        <duration>10080</duration>
        <type>quarter</type>
        <lyric name="1" number="1">
          <syllabic>single</syllabic>
          <text>B</text>
        </lyric>
      </note>
    </measure>
    <!--========================= Measure 0 ==========================-->
    <measure number="0">
      <note>
        <pitch>
          <step>A</step>
          <octave>5</octave>
        </pitch>
        <duration>10080</duration>
        <type>quarter</type>
        <lyric name="1" number="1">
          <syllabic>single</syllabic>
          <text>A</text>
        </lyric>
      </note>
      <note>
        <pitch>
          <step>F</step>
          <octave>5</octave>
        </pitch>
        <duration>10080</duration>
        <type>quarter</type>
        <lyric name="1" number="1">
          <syllabic>single</syllabic>
          <text>F</text>
        </lyric>
      </note>
      <note>
        <pitch>
          <step>F</step>
          <octave>4</octave>
        </pitch>
        <duration>10080</duration>
        <type>quarter</type>
        <lyric name="1" number="1">
          <syllabic>single</syllabic>
          <text>F</text>
        </lyric>
      </note>
      <note>
        <pitch>
          <step>C</step>
          <octave>4</octave>
        </pitch>
        <duration>10080</duration>
        <type>quarter</type>
        <lyric name="1" number="1">
          <syllabic>single</syllabic>
          <text>C</text>
        </lyric>
      </note>
    </measure>
    <!--========================= Measure 0 ==========================-->
    <measure number="0">
      <note>
        <pitch>
          <step>E</step>
          <octave>5</octave>
        </pitch>
        <duration>10080</duration>
        <type>quarter</type>
        <lyric name="1" number="1">
          <syllabic>single</syllabic>
          <text>E</text>
        </lyric>
      </note>
      <note>
        <pitch>
          <step>A</step>
          <octave>5</octave>
        </pitch>
        <duration>10080</duration>
        <type>quarter</type>
        <lyric name="1" number="1">
          <syllabic>single</syllabic>
          <text>A</text>
        </lyric>
      </note>
      <note>
        <pitch>
          <step>C</step>
          <octave>5</octave>
        </pitch>
        <duration>10080</duration>
        <type>quarter</type>
        <lyric name="1" number="1">
          <syllabic>single</syllabic>
          <text>C</text>
        </lyric>
      </note>
      <note>
        <pitch>
          <step>D</step>
          <octave>5</octave>
        </pitch>
        <duration>10080</duration>
        <type>quarter</type>
        <lyric name="1" number="1">
          <syllabic>single</syllabic>
          <text>D</text>
        </lyric>
      </note>
    </measure>
    <!--========================= Measure 0 ==========================-->
    <measure number="0">
      <note>
        <pitch>
          <step>D</step>
          <octave>5</octave>
        </pitch>
        <duration>10080</duration>
        <type>quarter</type>
        <lyric name="1" number="1">
          <syllabic>single</syllabic>
          <text>D</text>
        </lyric>
      </note>
      <note>
        <pitch>
          <step>D</step>
          <octave>4</octave>
        </pitch>
        <duration>10080</duration>
        <type>quarter</type>
        <lyric name="1" number="1">
          <syllabic>single</syllabic>
          <text>D</text>
        </lyric>
      </note>
      <note>
        <pitch>
          <step>C</step>
          <octave>4</octave>
        </pitch>
        <duration>10080</duration>
        <type>quarter</type>
        <lyric name="1" number="1">
          <syllabic>single</syllabic>
          <text>C</text>
        </lyric>
      </note>
      <note>
        <pitch>
          <step>B</step>
          <octave>4</octave>
        </pitch>
        <duration>10080</duration>
        <type>quarter</type>
        <lyric name="1" number="1">
          <syllabic>single</syllabic>
          <text>B</text>
        </lyric>
      </note>
    </measure>
    <!--========================= Measure 0 ==========================-->
    <measure number="0">
      <note>
        <pitch>
          <step>F</step>
          <octave>4</octave>
        </pitch>
        <duration>10080</duration>
        <type>quarter</type>
        <lyric name="1" number="1">
          <syllabic>single</syllabic>
          <text>F</text>
        </lyric>
      </note>
      <note>
        <pitch>
          <step>D</step>
          <octave>4</octave>
        </pitch>
        <duration>10080</duration>
        <type>quarter</type>
        <lyric name="1" number="1">
          <syllabic>single</syllabic>
          <text>D</text>
        </lyric>
      </note>
      <note>
        <pitch>
          <step>G</step>
          <octave>4</octave>
        </pitch>
        <duration>10080</duration>
        <type>quarter</type>
        <lyric name="1" number="1">
          <syllabic>single</syllabic>
          <text>G</text>
        </lyric>
      </note>
      <note>
        <pitch>
          <step>C</step>
          <octave>4</octave>
        </pitch>
        <duration>10080</duration>
        <type>quarter</type>
        <lyric name="1" number="1">
          <syllabic>single</syllabic>
          <text>C</text>
        </lyric>
      </note>
    </measure>
    <!--========================= Measure 0 ==========================-->
    <measure number="0">
      <note>
        <pitch>
          <step>F</step>
          <octave>4</octave>
        </pitch>
        <duration>10080</duration>
        <type>quarter</type>
        <lyric name="1" number="1">
          <syllabic>single</syllabic>
          <text>F</text>
        </lyric>
      </note>
      <note>
        <pitch>
          <step>B</step>
          <octave>4</octave>
        </pitch>
        <duration>10080</duration>
        <type>quarter</type>
        <lyric name="1" number="1">
          <syllabic>single</syllabic>
          <text>B</text>
        </lyric>
      </note>
      <note>
        <pitch>
          <step>B</step>
          <octave>5</octave>
        </pitch>
        <duration>10080</duration>
        <type>quarter</type>
        <lyric name="1" number="1">
          <syllabic>single</syllabic>
          <text>B</text>
        </lyric>
      </note>
      <note>
        <pitch>
          <step>A</step>
          <octave>4</octave>
        </pitch>
        <duration>10080</duration>
        <type>quarter</type>
        <lyric name="1" number="1">
          <syllabic>single</syllabic>
          <text>A</text>
        </lyric>
      </note>
    </measure>
    <!--========================= Measure 0 ==========================-->
    <measure number="0">
      <note>
        <pitch>
          <step>C</step>
          <octave>5</octave>
        </pitch>
        <duration>10080</duration>
        <type>quarter</type>
        <lyric name="1" number="1">
          <syllabic>single</syllabic>
          <text>C</text>
        </lyric>
      </note>
      <note>
        <pitch>
          <step>A</step>
          <octave>4</octave>
        </pitch>
        <duration>10080</duration>
        <type>quarter</type>
        <lyric name="1" number="1">
          <syllabic>single</syllabic>
          <text>A</text>
        </lyric>
      </note>
      <note>
        <pitch>
          <step>D</step>
          <octave>4</octave>
        </pitch>
        <duration>10080</duration>
        <type>quarter</type>
        <lyric name="1" number="1">
          <syllabic>single</syllabic>
          <text>D</text>
        </lyric>
      </note>
      <note>
        <pitch>
          <step>F</step>
          <octave>4</octave>
        </pitch>
        <duration>10080</duration>
        <type>quarter</type>
        <lyric name="1" number="1">
          <syllabic>single</syllabic>
          <text>F</text>
        </lyric>
      </note>
    </measure>
    <!--========================= Measure 0 ==========================-->
    <measure number="0">
      <note>
        <pitch>
          <step>B</step>
          <octave>4</octave>
        </pitch>
        <duration>10080</duration>
        <type>quarter</type>
        <lyric name="1" number="1">
          <syllabic>single</syllabic>
          <text>B</text>
        </lyric>
      </note>
      <note>
        <pitch>
          <step>A</step>
          <octave>5</octave>
        </pitch>
        <duration>10080</duration>
        <type>quarter</type>
        <lyric name="1" number="1">
          <syllabic>single</syllabic>
          <text>A</text>
        </lyric>
      </note>
      <note>
        <pitch>
          <step>C</step>
          <octave>4</octave>
        </pitch>
        <duration>10080</duration>
        <type>quarter</type>
        <lyric name="1" number="1">
          <syllabic>single</syllabic>
          <text>C</text>
        </lyric>
      </note>
      <note>
        <pitch>
          <step>D</step>
          <octave>5</octave>
        </pitch>
        <duration>10080</duration>
        <type>quarter</type>
        <lyric name="1" number="1">
          <syllabic>single</syllabic>
          <text>D</text>
        </lyric>
      </note>
    </measure>
    <!--========================= Measure 0 ==========================-->
    <measure number="0">
      <note>
        <pitch>
          <step>F</step>
          <octave>4</octave>
        </pitch>
        <duration>10080</duration>
        <type>quarter</type>
        <lyric name="1" number="1">
          <syllabic>single</syllabic>
          <text>F</text>
        </lyric>
      </note>
      <note>
        <pitch>
          <step>A</step>
          <octave>4</octave>
        </pitch>
        <duration>10080</duration>
        <type>quarter</type>
        <lyric name="1" number="1">
          <syllabic>single</syllabic>
          <text>A</text>
        </lyric>
      </note>
      <note>
        <pitch>
          <step>F</step>
          <octave>4</octave>
        </pitch>
        <duration>10080</duration>
        <type>quarter</type>
        <lyric name="1" number="1">
          <syllabic>single</syllabic>
          <text>F</text>
        </lyric>
      </note>
      <note>
        <pitch>
          <step>F</step>
          <octave>5</octave>
        </pitch>
        <duration>10080</duration>
        <type>quarter</type>
        <lyric name="1" number="1">
          <syllabic>single</syllabic>
          <text>F</text>
        </lyric>
      </note>
    </measure>
    <!--========================= Measure 0 ==========================-->
    <measure number="0">
      <note>
        <pitch>
          <step>F</step>
          <octave>5</octave>
        </pitch>
        <duration>10080</duration>
        <type>quarter</type>
        <lyric name="1" number="1">
          <syllabic>single</syllabic>
          <text>F</text>
        </lyric>
      </note>
      <note>
        <pitch>
          <step>D</step>
          <octave>4</octave>
        </pitch>
        <duration>10080</duration>
        <type>quarter</type>
        <lyric name="1" number="1">
          <syllabic>single</syllabic>
          <text>D</text>
        </lyric>
      </note>
      <note>
        <pitch>
          <step>C</step>
          <octave>4</octave>
        </pitch>
        <duration>10080</duration>
        <type>quarter</type>
        <lyric name="1" number="1">
          <syllabic>single</syllabic>
          <text>C</text>
        </lyric>
      </note>
      <note>
        <pitch>
          <step>F</step>
          <octave>4</octave>
        </pitch>
        <duration>10080</duration>
        <type>quarter</type>
        <lyric name="1" number="1">
          <syllabic>single</syllabic>
          <text>F</text>
        </lyric>
      </note>
    </measure>
    <!--========================= Measure 0 ==========================-->
    <measure number="0">
      <note>
        <pitch>
          <step>F</step>
          <octave>5</octave>
        </pitch>
        <duration>10080</duration>
        <type>quarter</type>
        <lyric name="1" number="1">
          <syllabic>single</syllabic>
          <text>F</text>
        </lyric>
      </note>
      <note>
        <pitch>
          <step>D</step>
          <octave>4</octave>
        </pitch>
        <duration>10080</duration>
        <type>quarter</type>
        <lyric name="1" number="1">
          <syllabic>single</syllabic>
          <text>D</text>
        </lyric>
      </note>
      <note>
        <pitch>
          <step>E</step>
          <octave>5</octave>
        </pitch>
        <duration>10080</duration>
        <type>quarter</type>
        <lyric name="1" number="1">
          <syllabic>single</syllabic>
          <text>E</text>
        </lyric>
      </note>
      <note>
        <pitch>
          <step>B</step>
          <octave>4</octave>
        </pitch>
        <duration>10080</duration>
        <type>quarter</type>
        <lyric name="1" number="1">
          <syllabic>single</syllabic>
          <text>B</text>
        </lyric>
      </note>
    </measure>
    <!--========================= Measure 0 ==========================-->
    <measure number="0">
      <note>
        <pitch>
          <step>D</step>
          <octave>4</octave>
        </pitch>
        <duration>10080</duration>
        <type>quarter</type>
        <lyric name="1" number="1">
          <syllabic>single</syllabic>
          <text>D</text>
        </lyric>
      </note>
      <note>
        <pitch>
          <step>B</step>
          <octave>4</octave>
        </pitch>
        <duration>10080</duration>
        <type>quarter</type>
        <lyric name="1" number="1">
          <syllabic>single</syllabic>
          <text>B</text>
        </lyric>
      </note>
      <note>
        <pitch>
          <step>G</step>
          <octave>5</octave>
        </pitch>
        <duration>10080</duration>
        <type>quarter</type>
        <lyric name="1" number="1">
          <syllabic>single</syllabic>
          <text>G</text>
        </lyric>
      </note>
      <note>
        <pitch>
          <step>E</step>
          <octave>4</octave>
        </pitch>
        <duration>10080</duration>
        <type>quarter</type>
        <lyric name="1" number="1">
          <syllabic>single</syllabic>
          <text>E</text>
        </lyric>
      </note>
    </measure>
    <!--========================= Measure 0 ==========================-->
    <measure number="0">
      <note>
        <pitch>
          <step>E</step>
          <octave>5</octave>
        </pitch>
        <duration>10080</duration>
        <type>quarter</type>
        <lyric name="1" number="1">
          <syllabic>single</syllabic>
          <text>E</text>
        </lyric>
      </note>
      <note>
        <pitch>
          <step>A</step>
          <octave>4</octave>
        </pitch>
        <duration>10080</duration>
        <type>quarter</type>
        <lyric name="1" number="1">
          <syllabic>single</syllabic>
          <text>A</text>
        </lyric>
      </note>
      <note>
        <pitch>
          <step>G</step>
          <octave>4</octave>
        </pitch>
        <duration>10080</duration>
        <type>quarter</type>
        <lyric name="1" number="1">
          <syllabic>single</syllabic>
          <text>G</text>
        </lyric>
      </note>
      <note>
        <pitch>
          <step>E</step>
          <octave>5</octave>
        </pitch>
        <duration>10080</duration>
        <type>quarter</type>
        <lyric name="1" number="1">
          <syllabic>single</syllabic>
          <text>E</text>
        </lyric>
      </note>
    </measure>
    <!--========================= Measure 0 ==========================-->
    <measure number="0">
      <note>
        <pitch>
          <step>E</step>
          <octave>4</octave>
        </pitch>
        <duration>10080</duration>
        <type>quarter</type>
        <lyric name="1" number="1">
          <syllabic>single</syllabic>
          <text>E</text>
        </lyric>
      </note>
      <note>
        <pitch>
          <step>F</step>
          <octave>5</octave>
        </pitch>
        <duration>10080</duration>
        <type>quarter</type>
        <lyric name="1" number="1">
          <syllabic>single</syllabic>
          <text>F</text>
        </lyric>
      </note>
      <note>
        <pitch>
          <step>F</step>
          <octave>4</octave>
        </pitch>
        <duration>10080</duration>
        <type>quarter</type>
        <lyric name="1" number="1">
          <syllabic>single</syllabic>
          <text>F</text>
        </lyric>
      </note>
      <note>
        <pitch>
          <step>B</step>
          <octave>5</octave>
        </pitch>
        <duration>10080</duration>
        <type>quarter</type>
        <lyric name="1" number="1">
          <syllabic>single</syllabic>
          <text>B</text>
        </lyric>
      </note>
    </measure>
  </part>
  <!--=========================== Part 4 ===========================-->
  <part id="P94f4626070e6e2e4e78d89bfd02753f7">
    <!--========================= Measure 0 ==========================-->
    <measure number="0">
      <attributes>
        <divisions>10080</divisions>
        <key>
          <fifths>0</fifths>
        </key>
        <time>
          <beats>4</beats>
          <beat-type>4</beat-type>
        </time>
      </attributes>
      <direction>
        <direction-type>
          <metronome parentheses="no">
            <beat-unit>quarter</beat-unit>
            <per-minute>120</per-minute>
          </metronome>
        </direction-type>
        <sound tempo="120" />
      </direction>
      <note>
        <pitch>
          <step>E</step>
          <octave>5</octave>
        </pitch>
        <duration>10080</duration>
        <type>quarter</type>
        <lyric name="1" number="1">
          <syllabic>single</syllabic>
          <text>E</text>
        </lyric>
      </note>
      <note>
        <pitch>
          <step>G</step>
          <octave>4</octave>
        </pitch>
        <duration>10080</duration>
        <type>quarter</type>
        <lyric name="1" number="1">
          <syllabic>single</syllabic>
          <text>G</text>
        </lyric>
      </note>
      <note>
        <pitch>
          <step>G</step>
          <octave>5</octave>
        </pitch>
        <duration>10080</duration>
        <type>quarter</type>
        <lyric name="1" number="1">
          <syllabic>single</syllabic>
          <text>G</text>
        </lyric>
      </note>
      <note>
        <pitch>
          <step>A</step>
          <octave>5</octave>
        </pitch>
        <duration>10080</duration>
        <type>quarter</type>
        <lyric name="1" number="1">
          <syllabic>single</syllabic>
          <text>A</text>
        </lyric>
      </note>
    </measure>
    <!--========================= Measure 0 ==========================-->
    <measure number="0">
      <note>
        <pitch>
          <step>E</step>
          <octave>5</octave>
        </pitch>
        <duration>10080</duration>
        <type>quarter</type>
        <lyric name="1" number="1">
          <syllabic>single</syllabic>
          <text>E</text>
        </lyric>
      </note>
      <note>
        <pitch>
          <step>A</step>
          <octave>5</octave>
        </pitch>
        <duration>10080</duration>
        <type>quarter</type>
        <lyric name="1" number="1">
          <syllabic>single</syllabic>
          <text>A</text>
        </lyric>
      </note>
      <note>
        <pitch>
          <step>F</step>
          <octave>4</octave>
        </pitch>
        <duration>10080</duration>
        <type>quarter</type>
        <lyric name="1" number="1">
          <syllabic>single</syllabic>
          <text>F</text>
        </lyric>
      </note>
      <note>
        <pitch>
          <step>F</step>
          <octave>5</octave>
        </pitch>
        <duration>10080</duration>
        <type>quarter</type>
        <lyric name="1" number="1">
          <syllabic>single</syllabic>
          <text>F</text>
        </lyric>
      </note>
    </measure>
    <!--========================= Measure 0 ==========================-->
    <measure number="0">
      <note>
        <pitch>
          <step>E</step>
          <octave>5</octave>
        </pitch>
        <duration>10080</duration>
        <type>quarter</type>
        <lyric name="1" number="1">
          <syllabic>single</syllabic>
          <text>E</text>
        </lyric>
      </note>
      <note>
        <pitch>
          <step>A</step>
          <octave>4</octave>
        </pitch>
        <duration>10080</duration>
        <type>quarter</type>
        <lyric name="1" number="1">
          <syllabic>single</syllabic>
          <text>A</text>
        </lyric>
      </note>
      <note>
        <pitch>
          <step>G</step>
          <octave>4</octave>
        </pitch>
        <duration>10080</duration>
        <type>quarter</type>
        <lyric name="1" number="1">
          <syllabic>single</syllabic>
          <text>G</text>
        </lyric>
      </note>
      <note>
        <pitch>
          <step>D</step>
          <octave>5</octave>
        </pitch>
        <duration>10080</duration>
        <type>quarter</type>
        <lyric name="1" number="1">
          <syllabic>single</syllabic>
          <text>D</text>
        </lyric>
      </note>
    </measure>
    <!--========================= Measure 0 ==========================-->
    <measure number="0">
      <note>
        <pitch>
          <step>G</step>
          <octave>5</octave>
        </pitch>
        <duration>10080</duration>
        <type>quarter</type>
        <lyric name="1" number="1">
          <syllabic>single</syllabic>
          <text>G</text>
        </lyric>
      </note>
      <note>
        <pitch>
          <step>C</step>
          <octave>5</octave>
        </pitch>
        <duration>10080</duration>
        <type>quarter</type>
        <lyric name="1" number="1">
          <syllabic>single</syllabic>
          <text>C</text>
        </lyric>
      </note>
      <note>
        <pitch>
          <step>B</step>
          <octave>5</octave>
        </pitch>
        <duration>10080</duration>
        <type>quarter</type>
        <lyric name="1" number="1">
          <syllabic>single</syllabic>
          <text>B</text>
        </lyric>
      </note>
      <note>
        <pitch>
          <step>B</step>
          <octave>4</octave>
        </pitch>
        <duration>10080</duration>
        <type>quarter</type>
        <lyric name="1" number="1">
          <syllabic>single</syllabic>
          <text>B</text>
        </lyric>
      </note>
    </measure>
    <!--========================= Measure 0 ==========================-->
    <measure number="0">
      <note>
        <pitch>
          <step>G</step>
          <octave>5</octave>
        </pitch>
        <duration>10080</duration>
        <type>quarter</type>
        <lyric name="1" number="1">
          <syllabic>single</syllabic>
          <text>G</text>
        </lyric>
      </note>
      <note>
        <pitch>
          <step>D</step>
          <octave>4</octave>
        </pitch>
        <duration>10080</duration>
        <type>quarter</type>
        <lyric name="1" number="1">
          <syllabic>single</syllabic>
          <text>D</text>
        </lyric>
      </note>
      <note>
        <pitch>
          <step>G</step>
          <octave>4</octave>
        </pitch>
        <duration>10080</duration>
        <type>quarter</type>
        <lyric name="1" number="1">
          <syllabic>single</syllabic>
          <text>G</text>
        </lyric>
      </note>
      <note>
        <pitch>
          <step>D</step>
          <octave>4</octave>
        </pitch>
        <duration>10080</duration>
        <type>quarter</type>
        <lyric name="1" number="1">
          <syllabic>single</syllabic>
          <text>D</text>
        </lyric>
      </note>
    </measure>
    <!--========================= Measure 0 ==========================-->
    <measure number="0">
      <note>
        <pitch>
          <step>A</step>
          <octave>4</octave>
        </pitch>
        <duration>10080</duration>
        <type>quarter</type>
        <lyric name="1" number="1">
          <syllabic>single</syllabic>
          <text>A</text>
        </lyric>
      </note>
      <note>
        <pitch>
          <step>A</step>
          <octave>4</octave>
        </pitch>
        <duration>10080</duration>
        <type>quarter</type>
        <lyric name="1" number="1">
          <syllabic>single</syllabic>
          <text>A</text>
        </lyric>
      </note>
      <note>
        <pitch>
          <step>B</step>
          <octave>5</octave>
        </pitch>
        <duration>10080</duration>
        <type>quarter</type>
        <lyric name="1" number="1">
          <syllabic>single</syllabic>
          <text>B</text>
        </lyric>
      </note>
      <note>
        <pitch>
          <step>E</step>
          <octave>4</octave>
        </pitch>
        <duration>10080</duration>
        <type>quarter</type>
        <lyric name="1" number="1">
          <syllabic>single</syllabic>
          <text>E</text>
        </lyric>
      </note>
    </measure>
    <!--========================= Measure 0 ==========================-->
    <measure number="0">
      <note>
        <pitch>
          <step>B</step>
          <octave>5</octave>
        </pitch>
        <duration>10080</duration>
        <type>quarter</type>
        <lyric name="1" number="1">
          <syllabic>single</syllabic>
          <text>B</text>
        </lyric>
      </note>
      <note>
        <pitch>
          <step>A</step>
          <octave>4</octave>
        </pitch>
        <duration>10080</duration>
        <type>quarter</type>
        <lyric name="1" number="1">
          <syllabic>single</syllabic>
          <text>A</text>
        </lyric>
      </note>
      <note>
        <pitch>
          <step>C</step>
          <octave>4</octave>
        </pitch>
        <duration>10080</duration>
        <type>quarter</type>
        <lyric name="1" number="1">
          <syllabic>single</syllabic>
          <text>C</text>
        </lyric>
      </note>
      <note>
        <pitch>
          <step>D</step>
          <octave>4</octave>
        </pitch>
        <duration>10080</duration>
        <type>quarter</type>
        <lyric name="1" number="1">
          <syllabic>single</syllabic>
          <text>D</text>
        </lyric>
      </note>
    </measure>
    <!--========================= Measure 0 ==========================-->
    <measure number="0">
      <note>
        <pitch>
          <step>A</step>
          <octave>5</octave>
        </pitch>
        <duration>10080</duration>
        <type>quarter</type>
        <lyric name="1" number="1">
          <syllabic>single</syllabic>
          <text>A</text>
        </lyric>
      </note>
      <note>
        <pitch>
          <step>F</step>
          <octave>4</octave>
        </pitch>
        <duration>10080</duration>
        <type>quarter</type>
        <lyric name="1" number="1">
          <syllabic>single</syllabic>
          <text>F</text>
        </lyric>
      </note>
      <note>
        <pitch>
          <step>C</step>
          <octave>4</octave>
        </pitch>
        <duration>10080</duration>
        <type>quarter</type>
        <lyric name="1" number="1">
          <syllabic>single</syllabic>
          <text>C</text>
        </lyric>
      </note>
      <note>
        <pitch>
          <step>B</step>
          <octave>5</octave>
        </pitch>
        <duration>10080</duration>
        <type>quarter</type>
        <lyric name="1" number="1">
          <syllabic>single</syllabic>
          <text>B</text>
        </lyric>
      </note>
    </measure>
    <!--========================= Measure 0 ==========================-->
    <measure number="0">
      <note>
        <pitch>
          <step>G</step>
          <octave>4</octave>
        </pitch>
        <duration>10080</duration>
        <type>quarter</type>
        <lyric name="1" number="1">
          <syllabic>single</syllabic>
          <text>G</text>
        </lyric>
      </note>
      <note>
        <pitch>
          <step>B</step>
          <octave>5</octave>
        </pitch>
        <duration>10080</duration>
        <type>quarter</type>
        <lyric name="1" number="1">
          <syllabic>single</syllabic>
          <text>B</text>
        </lyric>
      </note>
      <note>
        <pitch>
          <step>B</step>
          <octave>4</octave>
        </pitch>
        <duration>10080</duration>
        <type>quarter</type>
        <lyric name="1" number="1">
          <syllabic>single</syllabic>
          <text>B</text>
        </lyric>
      </note>
      <note>
        <pitch>
          <step>G</step>
          <octave>5</octave>
        </pitch>
        <duration>10080</duration>
        <type>quarter</type>
        <lyric name="1" number="1">
          <syllabic>single</syllabic>
          <text>G</text>
        </lyric>
      </note>
    </measure>
    <!--========================= Measure 0 ==========================-->
    <measure number="0">
      <note>
        <pitch>
          <step>E</step>
          <octave>4</octave>
        </pitch>
        <duration>10080</duration>
        <type>quarter</type>
        <lyric name="1" number="1">
          <syllabic>single</syllabic>
          <text>E</text>
        </lyric>
      </note>
      <note>
        <pitch>
          <step>F</step>
          <octave>5</octave>
        </pitch>
        <duration>10080</duration>
        <type>quarter</type>
        <lyric name="1" number="1">
          <syllabic>single</syllabic>
          <text>F</text>
        </lyric>
      </note>
      <note>
        <pitch>
          <step>A</step>
          <octave>5</octave>
        </pitch>
        <duration>10080</duration>
        <type>quarter</type>
        <lyric name="1" number="1">
          <syllabic>single</syllabic>
          <text>A</text>
        </lyric>
      </note>
      <note>
        <pitch>
          <step>A</step>
          <octave>4</octave>
        </pitch>
        <duration>10080</duration>
        <type>quarter</type>
        <lyric name="1" number="1">
          <syllabic>single</syllabic>
          <text>A</text>
        </lyric>
      </note>
    </measure>
    <!--========================= Measure 0 ==========================-->
    <measure number="0">
      <note>
        <pitch>
          <step>E</step>
          <octave>5</octave>
        </pitch>
        <duration>10080</duration>
        <type>quarter</type>
        <lyric name="1" number="1">
          <syllabic>single</syllabic>
          <text>E</text>
        </lyric>
      </note>
      <note>
        <pitch>
          <step>B</step>
          <octave>4</octave>
        </pitch>
        <duration>10080</duration>
        <type>quarter</type>
        <lyric name="1" number="1">
          <syllabic>single</syllabic>
          <text>B</text>
        </lyric>
      </note>
      <note>
        <pitch>
          <step>D</step>
          <octave>4</octave>
        </pitch>
        <duration>10080</duration>
        <type>quarter</type>
        <lyric name="1" number="1">
          <syllabic>single</syllabic>
          <text>D</text>
        </lyric>
      </note>
      <note>
        <pitch>
          <step>B</step>
          <octave>5</octave>
        </pitch>
        <duration>10080</duration>
        <type>quarter</type>
        <lyric name="1" number="1">
          <syllabic>single</syllabic>
          <text>B</text>
        </lyric>
      </note>
    </measure>
    <!--========================= Measure 0 ==========================-->
    <measure number="0">
      <note>
        <pitch>
          <step>A</step>
          <octave>5</octave>
        </pitch>
        <duration>10080</duration>
        <type>quarter</type>
        <lyric name="1" number="1">
          <syllabic>single</syllabic>
          <text>A</text>
        </lyric>
      </note>
      <note>
        <pitch>
          <step>D</step>
          <octave>5</octave>
        </pitch>
        <duration>10080</duration>
        <type>quarter</type>
        <lyric name="1" number="1">
          <syllabic>single</syllabic>
          <text>D</text>
        </lyric>
      </note>
      <note>
        <pitch>
          <step>B</step>
          <octave>5</octave>
        </pitch>
        <duration>10080</duration>
        <type>quarter</type>
        <lyric name="1" number="1">
          <syllabic>single</syllabic>
          <text>B</text>
        </lyric>
      </note>
      <note>
        <pitch>
          <step>D</step>
          <octave>4</octave>
        </pitch>
        <duration>10080</duration>
        <type>quarter</type>
        <lyric name="1" number="1">
          <syllabic>single</syllabic>
          <text>D</text>
        </lyric>
      </note>
    </measure>
    <!--========================= Measure 0 ==========================-->
    <measure number="0">
      <note>
        <pitch>
          <step>F</step>
          <octave>4</octave>
        </pitch>
        <duration>10080</duration>
        <type>quarter</type>
        <lyric name="1" number="1">
          <syllabic>single</syllabic>
          <text>F</text>
        </lyric>
      </note>
      <note>
        <pitch>
          <step>E</step>
          <octave>5</octave>
        </pitch>
        <duration>10080</duration>
        <type>quarter</type>
        <lyric name="1" number="1">
          <syllabic>single</syllabic>
          <text>E</text>
        </lyric>
      </note>
      <note>
        <pitch>
          <step>A</step>
          <octave>5</octave>
        </pitch>
        <duration>10080</duration>
        <type>quarter</type>
        <lyric name="1" number="1">
          <syllabic>single</syllabic>
          <text>A</text>
        </lyric>
      </note>
      <note>
        <pitch>
          <step>A</step>
          <octave>5</octave>
        </pitch>
        <duration>10080</duration>
        <type>quarter</type>
        <lyric name="1" number="1">
          <syllabic>single</syllabic>
          <text>A</text>
        </lyric>
      </note>
    </measure>
    <!--========================= Measure 0 ==========================-->
    <measure number="0">
      <note>
        <pitch>
          <step>A</step>
          <octave>4</octave>
        </pitch>
        <duration>10080</duration>
        <type>quarter</type>
        <lyric name="1" number="1">
          <syllabic>single</syllabic>
          <text>A</text>
        </lyric>
      </note>
      <note>
        <pitch>
          <step>G</step>
          <octave>5</octave>
        </pitch>
        <duration>10080</duration>
        <type>quarter</type>
        <lyric name="1" number="1">
          <syllabic>single</syllabic>
          <text>G</text>
        </lyric>
      </note>
      <note>
        <pitch>
          <step>G</step>
          <octave>4</octave>
        </pitch>
        <duration>10080</duration>
        <type>quarter</type>
        <lyric name="1" number="1">
          <syllabic>single</syllabic>
          <text>G</text>
        </lyric>
      </note>
      <note>
        <pitch>
          <step>G</step>
          <octave>4</octave>
        </pitch>
        <duration>10080</duration>
        <type>quarter</type>
        <lyric name="1" number="1">
          <syllabic>single</syllabic>
          <text>G</text>
        </lyric>
      </note>
    </measure>
    <!--========================= Measure 0 ==========================-->
    <measure number="0">
      <note>
        <pitch>
          <step>D</step>
          <octave>4</octave>
        </pitch>
        <duration>10080</duration>
        <type>quarter</type>
        <lyric name="1" number="1">
          <syllabic>single</syllabic>
          <text>D</text>
        </lyric>
      </note>
      <note>
        <pitch>
          <step>E</step>
          <octave>4</octave>
        </pitch>
        <duration>10080</duration>
        <type>quarter</type>
        <lyric name="1" number="1">
          <syllabic>single</syllabic>
          <text>E</text>
        </lyric>
      </note>
      <note>
        <pitch>
          <step>G</step>
          <octave>5</octave>
        </pitch>
        <duration>10080</duration>
        <type>quarter</type>
        <lyric name="1" number="1">
          <syllabic>single</syllabic>
          <text>G</text>
        </lyric>
      </note>
      <note>
        <pitch>
          <step>B</step>
          <octave>5</octave>
        </pitch>
        <duration>10080</duration>
        <type>quarter</type>
        <lyric name="1" number="1">
          <syllabic>single</syllabic>
          <text>B</text>
        </lyric>
      </note>
    </measure>
    <!--========================= Measure 0 ==========================-->
    <measure number="0">
      <note>
        <pitch>
          <step>C</step>
          <octave>4</octave>
        </pitch>
        <duration>10080</duration>
        <type>quarter</type>
        <lyric name="1" number="1">
          <syllabic>single</syllabic>
          <text>C</text>
        </lyric>
      </note>
      <note>
        <pitch>
          <step>A</step>
          <octave>5</octave>
        </pitch>
        <duration>10080</duration>
        <type>quarter</type>
        <lyric name="1" number="1">
          <syllabic>single</syllabic>
          <text>A</text>
        </lyric>
      </note>
      <note>
        <pitch>
          <step>F</step>
          <octave>4</octave>
        </pitch>
        <duration>10080</duration>
        <type>quarter</type>
        <lyric name="1" number="1">
          <syllabic>single</syllabic>
          <text>F</text>
        </lyric>
      </note>
      <note>
        <pitch>
          <step>D</step>
          <octave>5</octave>
        </pitch>
        <duration>10080</duration>
        <type>quarter</type>
        <lyric name="1" number="1">
          <syllabic>single</syllabic>
          <text>D</text>
        </lyric>
      </note>
    </measure>
  </part>
</score-partwise>